<svg height="128" viewBox="0 0 300 128" width="300" xmlns="http://www.w3.org/2000/svg"><g fill="#fff" opacity=".5"><g transform="translate(35.266667 76.266667)"><path d="m46.1386667 11.0346667c.086038.0813514.1808408.1529007.2826666.2133333 2.2186667 1.3173333 3.344-2.33066667 4.208-3.70666667.2510127-.31984457.3897116-.71344944.3946667-1.12-.1706667-1.6-3.7333333-3.2-5.0186667-3.68533333-1.3214735-.54424998-2.7497755-.77956411-4.176-.688-5.4574798.37137855-10.7297666 2.13003132-15.3173333 5.10933333-4.8349685 3.09940237-9.3575269 6.66100637-13.504 10.63466667-6.14933333 6.0106667-14.69333333 15.8613333-12.43733333 25.1786667.53583034 2.0697725 1.56000022 3.9809466 2.98666666 5.5733333 1.64266667 1.9306667 4.02133334 2.7573333 6.53866667 2.7946667 2.1378678-.0315407 4.2569873-.404232 6.2773333-1.104 3.7339416-1.1752282 7.3327303-2.7431058 10.736-4.6773334 3.2-1.8026666 6.816-3.264 9.728-5.4773333.5406627-.3975373 1.1237902-.7338194 1.7386667-1.0026667.5333333-.256.9866667-.7413333 1.8293333-.752-.5066666 1.0026667-.8853333 1.7013334-1.2586666 2.608-.4555911 1.0667532-.9646819 2.1098554-1.5253334 3.1253334-.576 1.0666666-.7253333 2.1333333.3466667 3.5093333.24.32.5333333.5973333.768.9173333.6026667.8426667 1.504 1.344 2.5386667.7946667 1.2-.64 1.8613333-3.5626667 2.4213333-4.7573333 2.6666667-5.6693334 7.7706667-11.136 12.608-15.0666667 1.8026667-1.4666667 3.7653333-2.7306667 5.6746667-4.064.3014657-.3051775.7491286-.4145145 1.1573333-.2826667v.7413334c-.0103084.2178898.113109.4200945.3116099.5105358.1985009.0904412.432069.0508867.5897234-.0998692.2818202-.2302845.550676-.4759938.8053334-.736.2246311-.2070104.3322447-.5117803.287401-.8139417-.0448438-.3021614-.2363313-.5625418-.511401-.6953916-.4119841-.1482616-.8397027-.2484802-1.2746667-.2986667-1.776-.1066666-2.8053333.448-4.3466667 1.3706667-2.9022342 1.7044478-5.5959571 3.7412962-8.0266666 6.0693333-.3834666.3368002-.7839953.6536629-1.2.9493334l-.1973334-.128c.0746667-.272.1333334-.5333334.224-.8053334.3093334-.8426666.6186667-1.68.944-2.512.1651829-.4060993.0867216-.8706727-.2026666-1.2-.5998761-.7169203-1.3623837-1.2801154-2.224-1.6426666-.432-.2293334-.7253334-.112-1.024.3146666-.1285864.1930473-.2409702.3964084-.336.608-1.4550774 2.9297797-3.068117 5.7784149-4.832 8.5333334-.4028559.6314702-.9760004 1.1362071-1.6533334 1.456-1.328.624-2.6293333 1.2906666-3.9466666 1.9306666-.4053334.1973334-.816.3786667-1.2373334.5333334-8 3.2426666-15.9253333 7.536-24.5333333 8.992-3.33333333.5333333-4.85333333-2.1333334-4.08-5.2266667 1.03694036-3.9230389 2.62425768-7.6794504 4.7146667-11.1573333 2.5493333-4.4533334 5.136-8.9546667 8.6666666-12.6826667 6.3306667-6.6933333 13.904-11.13066667 23.0506667-13.01333333.448-.096.9066667-.13866667 1.36-.192.4533333-.05333334.9013333-.256 1.264.26666666-.1173333.27733334-.2346667.58666667-.3733333.88533334-.4853334 1.06666666-.2026667 3.06666663.7733333 3.94133333"/><path d="m139.642667 19.888c.634666-.576.922666-1.264-.112-1.9306667-1.376-1.0293333-1.68-.96-3.381334-1.1893333-.405051-.0547298-.81024.0995402-1.076328.4097968-.266088.3102565-.356816.7342213-.241005 1.1262032.282667.928.656 2.9066667 1.888 3.0826667.416644.014313.826627-.1073715 1.168-.3466667.630304-.314337 1.224101-.6970853 1.770667-1.1413333"/><path d="m81.3866667 43.8986667c.1104899-.4782376.3315093-.9239295.6453333-1.3013334.6133333-.8266666 1.2106667-1.6746666 1.8986667-2.4373333 1.824-2.0266667 3.6213333-4.08 5.5626666-5.9893333 1.6586667-1.6 3.4933334-3.0773334 5.2746667-4.5653334.401409-.2931496.8482469-.5183703 1.3226667-.6666666.2113484-.0700512.4434807-.0343386.624.096.143887.2461299.1913939.536872.1333333.816-.1398234.3048306-.3191394.5899432-.5333333.848-1.2270616 1.9024733-2.7481921 3.5982188-4.5066667 5.024-1.2337778 1.0666666-2.4782222 2.1191111-3.7333333 3.1573333-1.6 1.3226667-3.152 2.6666667-4.7626667 3.936-.5658847.4954265-1.2342674.8596678-1.9573333 1.0666667m-15.8613334-9.4933334c.2153387-.3549229.46354-.6888339.7413334-.9973333 3.504-3.3226667 7.168-6.896 11.072-9.872.1814135-.1453858.3781302-.2705692.5866666-.3733333.3060222-.1950776.6982813-.1914044 1.0005966.0093699.3023153.2007742.4578461.5609005.3967368.9186301-.032441.330969-.1265028.65295-.2773334.9493333-.9713285 2.0104398-2.3626285 3.7891214-4.08 5.216-2.4435435 2.0178716-5.3142432 3.4532215-8.3946666 4.1973333-.3042906.0669875-.6124351.1150795-.9226667.144zm25.1786667 6.208.2453333.1706667c-.1653333.464-.336.928-.4906666 1.392-.3253334.976-.6773334 1.9466667-.9546667 2.9333333-.9013333 3.2746667 4.2293333 7.1466667 6.8906667 4.5226667 4.3253333-4.2666667 7.7333333-9.3173333 11.4026663-14.1333333 3.813334-5.0133334 8.096-9.6853334 12.266667-14.4.556664-.6881629 1.217006-1.285529 1.957333-1.7706667-.042793.211592-.105288.4187167-.186666.6186667-.218667.368-.485334.7146666-.693334 1.0933333-3.589333 6.5653333-6.181333 13.4933333-8.704 20.5973333-.144.4053334-.256.8266667-.394666 1.232-.561868 1.4581931-.254494 3.1085276.794666 4.2666667.450271.6082104 1.208007.9063361 1.952.768.503756-.026805.919854-.4028504.997334-.9013333.186666-.6613334.352-1.328.586666-1.9733334 1.989334-5.5413333 3.968-11.1093333 6.506667-16.432 2.325333-4.8693333 5.306667-9.2853333 8.229333-13.808.298494-.4820563.751599-.8486765 1.285334-1.04 2.250727-.8351371 4.640078-1.2333622 7.04-1.1733333.864 0 1.733333 0 2.597333.0426667 1.690667.0586666 3.386667.0693333 5.066667.2293333 1.781333.1706667 3.557333.4426667 5.333333.7786667.865142.2312658 1.713364.5217282 2.538667.8693333.771609.2253659 1.462151.6678313 1.989333 1.2746667.196672.2061501.408849.3969306.634667.5706666.041201-.6073108-.149385-1.2076574-.533334-1.68-1.205333-1.984-3.2-3.0346666-5.333333-3.8453333-1.512544-.5771778-3.077074-1.00760227-4.672-1.28533333-3.15855-.54913122-6.356842-.83810123-9.562667-.864-.507781.07888762-1.027534-.00121765-1.488-.22933334.0743-.18566111.165342-.36417511.272-.53333333 1.066667-1.35466667 2.133334-2.71466667 3.2-4.048.235306-.27369518.519189-.50152456.837334-.672.602146-.29048021 1.02574-.8552715 1.136-1.51466667.080751-.51655529-.213701-1.01846133-.704-1.2-.317846-.13334007-.651087-.22650402-.992-.27733333-.403906-.08111785-.818576-.09373826-1.226667-.03733333-.629848.13104628-1.204752.45105807-1.648.91733333-1.276444 1.40088889-2.549333 2.80711111-3.818667 4.21866667l-3.013333 3.30666666c-.414491.45176549-.988046.72515978-1.6.76266667-2.72.18133333-5.445333.33066667-8.16.58666667-3.141333.30400003-6.266667.73600003-9.408 1.06666663-1.946707.2404255-3.905298.3721853-5.866667.3946667-3.326154.0466493-6.6506671-.1745093-9.941333-.6613333-.9173333-.16-1.84-.3306667-2.7306667-.576-.8906666-.24533337-1.1733333-.72533337-1.0346666-1.6426667.0507596-.26079573.1312866-.51490324.24-.75733333.2636611-.72285668.3442811-1.49974051.2346666-2.26133334-.0696711-.225315-.1721004-.4391586-.304-.63466666-.9015558.46562177-1.5043918 1.35781905-1.6 2.368-.0693333.75733333-.0426666 1.52533333-.0426666 2.29333333.0116714.9763576.3928048 1.9120403 1.0666666 2.6186667.6103398.6626125 1.3585872 1.1832907 2.192 1.5253333 1.4217778.5705384 2.8928066 1.0097048 4.3946667 1.312 2.2343428.5252101 4.516303.8218471 6.810667.8853333 4.099817.0957212 8.200904-.1253809 12.266666-.6613333 2.005334-.2666667 4.016-.5333333 6.032-.7466667.494122-.1250072 1.015808-.0818462 1.482667.1226667-.304.3466667-.533333.64-.810667.9173333-.277333.2773334-.592.5333334-.853333.8373334-1.984 2.2826666-3.973333 4.56-5.936 6.8586666-2.309333 2.7093334-4.586667 5.4453334-6.901333 8.1493334-3.274667 3.8133333-6.570667 7.6-9.8560003 11.3973333-.9546667 1.1093333-1.8933334 2.2346667-2.8533334 3.3386667-.1773074.1650897-.3682043.3149527-.5706666.448l-.1813334-.1173334c.144-.4906666.2773334-.9866666.4373334-1.472.5988417-2.0180139 1.3038231-4.0029995 2.112-5.9466666.2293333-.5333334.5013333-1.0133334.7306666-1.5306667 1.2639997-2.8906667 2.5119997-5.7813333 3.7813337-8.6773333.768-1.7653334-3.8133337-1.6-4.6400003-1.2373334-.1372859.0763457-.2909711.1184262-.448.1226667-.3946667-.032-.5333334-.5333333-.6346667-.9013333-.7466667-3.776-7.008 1.4666666-8.0533333 2.2346666-.6453334.4693334-1.2053334 1.0666667-1.8293334 1.536-1.12.8853334-2.2933333 1.7066667-3.3653333 2.6666667-.7397977.6650692-1.5827924 1.2054504-2.496 1.6-1.0133333.4213333-2.0533333.7946667-3.0186667 1.312-2.6986666 1.44-5.3706666 2.928-8.032 4.4266667-1.1573333.6506666-2.24 1.4346666-3.4186666 2.048-1.1786667.6133333-2.448 1.1413333-3.6906667 1.6746666-.4479859.1825452-.9099172.3287937-1.3813333.4373334-1.0346667.2026666-1.328 0-1.2533334-1.0026667.0428537-.4971143.1285045-.9896061.256-1.472.5773782-2.0915656 1.6223362-4.0246467 3.056-5.6533333.1767622-.2400528.4540279-.3855681.752-.3946667.7609942-.0497904 1.5180674-.1477646 2.2666667-.2933333 1.9094566-.4569169 3.7651427-1.1148095 5.536-1.9626667 2.7014472-1.1704682 5.0800594-2.9763837 6.9333333-5.264.4986311-.6639992.9632291-1.3528859 1.392-2.064 2.0053334-3.0933333-1.4026666-5.9253333-4.432-4.6666667-.4266666.176-.864.3466667-1.2853333.5333334-1.1696287.4739099-2.2941756 1.0522483-3.36 1.728-1.9253333 1.4293333-3.7333333 3.0026666-5.5733333 4.5493333-.6518237.5700473-1.2630853 1.1848731-1.8293334 1.84-.848 1.0186667-1.6 2.1013333-2.4906666 3.0933333-1.4844075 1.7596027-2.575459 3.8162348-3.2 6.032-.5447291 1.7741813-.2627217 3.6992738.768 5.2426667.9822436 1.4780559 2.7768435 2.1937721 4.5066666 1.7973333.6465771-.158608 1.2782554-.3727362 1.888-.64 3.3217334-1.5427428 6.4760884-3.4228457 9.4133334-5.6106666 1.232-.9066667 2.528-1.728 3.8026666-2.576.1590598-.0695837.3283845-.1128155.5013334-.128-.093476.3324998-.2591964.6402663-.4853334.9013333-1.6 2.2346667-3.2 4.384-3.0026666 7.2906667.0108058.4180092.1050992.8296365.2773333 1.2106666.3245664.6152962.8941015 1.0647253 1.568 1.2373334.6669199.1679689 1.3650801.1679689 2.032 0 2.3786667-.5653334 3.9306667-2.4693334 5.8133333-3.84 1.36-.9973334 2.5813334-2.176 3.8666667-3.2693334.288-.2453333.592-.464.8906667-.6933333"/><path d="m200.682667 36.5493333c-.714667 1.376-1.413334 2.7573334-2.133334 4.128-.4.7573334-1.834666 1.4773334-2.666666 1.9466667-1.497962.4664513-3.060624.691489-4.629334.6666667-.139626-.0005994-.271187-.0655076-.356621-.1759471-.085434-.1104396-.11521-.2540872-.080712-.3893863.124765-.4839008.413063-.9097529.816-1.2053333 1.226712-1.0123835 2.512536-1.9509287 3.850667-2.8106667 1.450666-.8533333 3.029333-1.4826666 4.554666-2.208.151475-.0521284.306554-.0931263.464-.1226666l.192.1706666m-57.76-3.792.24.1386667c-.112.256-.197333.5333333-.330666.768-.410667.72-.864 1.424-1.264 2.1333333-1.501282 2.5047359-1.655295 5.5929911-.410667 8.2346667.709333 1.5733333 2.784 2.56 4.426667 2.864 2.234666.4213333 5.386666-1.6266667 6.832-3.1626667 1.728-1.84 3.114666-3.008 4.773333-5.1893333 1.44274-1.7650886 2.754672-3.6331663 3.925333-5.5893333.707357-1.3560042 1.623421-2.5924206 2.714667-3.664 1.994667-1.904 3.733333-4.0746667 5.84-5.8666667 1.882278-1.5915959 3.912914-2.9989323 6.064-4.2026667.304-.1706666.624-.4053333 1.04-.128 0 .128-.048.256-.074667.3786667-.122666.6293333-.656.976-1.002666 1.4506667-.773334 1.0666666-1.514667 2.1813333-2.24 3.2853333-1.493334 2.2826667-2.954667 4.576-4.448 6.8586667-.986667 1.4986666-2.021334 2.9706666-2.992 4.4746666-.579427.8502777-1.096342 1.7415104-1.546667 2.6666667-.58366 1.0714795-.595657 2.3631977-.032 3.4453333.437333.8266667 1.2 1.232 1.866667 1.7493334.409625.2403667.926059.1976862 1.290666-.1066667.858906-.5657795 1.65615-1.2200198 2.378667-1.952 1.6-1.5733333 3.098667-3.2 4.672-4.7733333 2.042667-2.0533334 4.085333-4.096 6.170667-6.1066667 1.6-1.5413333 3.258666-3.0293333 4.901333-4.5333333.263924-.1951901.540041-.3733303.826667-.5333334-.078497.2498434-.182139.4910786-.309334.72-.750103.9718191-1.4343 1.9927689-2.048 3.056-1.290666 2.288-2.768 4.4693334-4.037333 6.768-1.770667 3.2-3.584 6.4-4.517333 9.9733334-.21985.7346935-.028445 1.5308571.501333 2.0853333.4.48.848.9173333 1.269333 1.3813333.299269.4711489.920733.6158409 1.397334.3253334.245333-.1066667.474666-.24.714666-.3626667 1.126825-.6411356 2.133778-1.4730452 2.976-2.4586667 2.106667-2.2613333 3.968-4.7413333 6.133334-6.96 2.832-2.896 5.525333-5.9253333 8.282666-8.8906666 2.218667-2.3893334 4.442667-4.7697778 6.672-7.1413334.292778-.2832479.600791-.5503114.922667-.8.120151.4108093.084056.8515468-.101333 1.2373334-.73975 2.0678691-1.361199 4.1761676-1.861334 6.3146666-.314666 1.2213334-.432 1.0186667-.805333 2.2186667-.089068.3963144-.371762.7211112-.752.864-.592.224-1.152.5333333-1.744.7306667-2.914259 1.0594634-5.633521 2.5929899-8.048 4.5386666-.459934.3817286-.867059.8229297-1.210667 1.312-.454427.5358361-.725425 1.203051-.773333 1.904.069333.9653334-.709333 1.7706667 1.936 2.0053334.264483.0239049.522668.0943191.762667.208 2.48 1.248 6.4 2.064 9.066666 1.1253333 2.794667-.976 4.16-3.408 5.082667-6.048.543443-1.444821.860077-2.965024.938667-4.5066667-.063882-.6154152.352679-1.177772.96-1.296 1.872-.4853333 3.733333-1.0666666 5.610666-1.4186666 2.727413-.4789399 5.492225-.7127619 8.261334-.6986667 2.009004-.0106625 4.01664.1069098 6.010666.352 1.066667.128 2.113778.2773333 3.141334.448.656.1066667 1.696.608 2.464.5653333.116224-.0028799.216571-.0821928.246219-.1946088.029648-.1124161-.018532-.2309009-.118219-.2907245-.442524-.2608305-.910781-.4752997-1.397334-.64-4.687321-1.5659924-9.653397-2.1204042-14.570666-1.6266667-3.18893.215296-6.346092.76771-9.418667 1.648-.326815.0627554-.659269.0913536-.992.0853334.277333-1.28.426667-1.9573334.698667-3.0826667.501333-2.0693333 1.008-3.8186667 1.562666-5.8666667.124571-.55058.32753-1.0804279.602667-1.5733333.551531-.91224 1.155199-1.791922 1.808-2.6346667.896-1.1573333 1.962667-2.0693333 3.525333-2.208.127065-.0084511.253512-.0244796.378667-.048.161697-.0322259.294147-.1478376.347929-.3036958s.020817-.3285501-.086596-.4536375c-.84732-.9283096-2.159613-1.2746379-3.354666-.8853333-1.17069.4001072-2.235551 1.0601756-3.114667 1.9306666-.752.704-1.450667 1.4613334-2.213333 2.1333334-2.272 2.0533333-4.586667 4.0533333-6.826667 6.1333333-1.776 1.6533333-3.472 3.3866667-5.184 5.0986667-2.490667 2.4853333-4.992 4.96-7.429333 7.4933333-1.573334 1.632-3.029334 3.3653333-4.56 5.0293333-1.216 1.3173334-2.464 2.6133334-3.733334 3.8933334-.35353.2928943-.733879.551817-1.136.7733333-.213333-.6453333-.192-.64-.053333-1.0293333 1.408-3.936 3.418667-7.5733334 5.525333-11.1626667 1.477334-2.5173333 3.349334-4.8 4.501334-7.504.384-.912.725333-1.8506667 1.018666-2.8.181334-.5866667-.149333-.992-.768-1.168-.715807-.2214723-1.49215-.1263703-2.133333.2613333-1.024.6186667-2.064 1.2266667-3.018667 1.9413334-1.6 1.216-3.2 2.496-4.768 3.7813333-.997333.8213333-1.946666 1.7013333-2.922666 2.5493333-.345496.3975837-.815477.6664134-1.333334.7626667.06275-.2142308.14302-.4229349.24-.624 2.016-3.28 4.533334-6.5226667 5.802667-10.192.246792-.7261507.259848-1.5113795.037333-2.2453333-.319982-.8224388-1.017017-1.4400391-1.872-1.6586667-1.026217-.3176001-2.129768-.2781204-3.130666.112-1.917678.8482885-3.732119 1.9129753-5.408 3.1733333-2.295348 1.7005454-4.436909 3.5993962-6.4 5.6746667-.167792.1461528-.346045.2798425-.533334.4-.306049-.2935091-.452817-.7159614-.394666-1.136 0-.56.069333-1.2106667-.421334-1.6-.353479-.3087429-.737714-.5803886-1.146666-.8106667-.16843-.074996-.349213-.118384-.533334-.128-.183359-.0181254-.365806.0423383-.50205.1663815-.136245.1240432-.21351.3000343-.212616.4842852.032 1.184.373333 2.2826667 0 3.5253333-.887357 2.7330119-2.326913 5.2545028-4.229334 7.408-1.598684 2.0011944-3.372837 3.8556667-5.301333 5.5413334-1.146667.96-2.325333 1.8773333-3.504 2.8-.202828.0997221-.42098.1646271-.645333.192-.034897-.1595522-.054541-.3220616-.058667-.4853334.014961-.3573147.050576-.713465.106667-1.0666666.714666-3.6586667 2.544-6.832 4.64-9.8613334 1.365333-1.9733333 2.666666-4.2986666 4.4-5.952 1.205333-1.1413333 2.378666-2.32 3.632-3.4133333.898174-.8745672 1.920802-1.6114343 3.034666-2.1866667.342451-.1577231.564262-.4976942.570667-.8746666.008025-.3422348-.208408-.6495704-.533333-.7573334-.533334-.2293333-1.066667-.3573333-1.6-.6026666-.706943-.3248124-1.537827-.212643-2.133334.288-8.533333 5.648-16.533333 12.1013333-24.533333 18.448-1.664 1.3226666-3.413333 2.5493333-5.136 3.7973333-.298667.2186667-.597333.5333333-1.12.4266667.015222-.2323901.052727-.4627811.112-.688.765168-1.9816244 1.728265-3.8810157 2.874667-5.6693334 1.856-2.9226666 4.752-5.8666666 5.402666-9.344.128-.6826666.085334-.9493333-.533333-1.2266666-.642546-.2569804-1.308887-.4499156-1.989333-.576-.315216-.0552204-.62052.139064-.704.448-.667551 1.4501997-1.507379 2.8146971-2.501334 4.064-1.522148 2.1387124-2.890906 4.3825487-4.096 6.7146666-.786519 1.4287795-1.381839 2.954736-1.770666 4.5386667-.093462.3494137-.093462.717253 0 1.0666667.490666 1.3653333 1.125333 3.2 2.896 3.0666666.573623-.0769312 1.128448-.2576558 1.637333-.5333333 3.125333-1.488 5.866667-3.9733333 8.464-6.2026667 1.642667-1.4026666 3.232-2.8746666 4.848-4.3093333.203662-.1562207.417465-.298756.64-.4266667"/></g><g transform="translate(31)"><path d="m45.6266667 44.1706667c.232436-.1753209.4746003-.3373574.7253333-.4853334 1.2746667-.592 2.5653333-1.1573333 3.8346667-1.7653333 3.92-1.8773333 7.8026666-3.8346667 11.5626666-6.032 3.7817993-2.1478277 7.3390903-4.6688411 10.6186667-7.5253333 3.476601-2.9964109 5.9783216-6.9635045 7.184-11.392.416-1.6.608-3.2-.1386667-4.7413334-.6555041-1.4849426-1.602172-2.82333517-2.784-3.93599997-2.3540266-2.10448614-5.0626379-3.77479647-8-4.93333333-9.9733333-3.92-22.7306666-3.2-33.0666666-1.23733333-6.6455055 1.25488984-13.0996179 3.36861165-19.2 6.288-5.9413334 2.84800003-12.2666667 6.27733333-16.0426667 11.85066663-.34471042.369277-.41152586.9188878-.16533333 1.36.53333333 1.0133334 1.01866666 2.0853334 1.664 3.0346667.30563976.5058504.85805437.8100813 1.44894677.7979774.5908924-.012104 1.13038501-.3387017 1.41505323-.8566441.87061147-1.3591076 1.92404058-2.5919965 3.13066666-3.664 6.99733337-6.7306666 17.31733337-10.704 26.56533337-13.09866663 10.336-2.66666667 22.5066666-4.01066667 32.928-1.14133334 2.6513062.70186828 5.1403841 1.91379922 7.328 3.56799997.8294128.5980557 1.2286645 1.6285851 1.0186666 2.6293334-.0763904.4495982-.1960579.8907605-.3573333 1.3173333-.8475708 2.3413617-2.1124549 4.5097344-3.7333333 6.4-3.6853334 4.4213333-8.8213334 7.5253333-13.696 10.4693333-4.1788637 2.5240742-8.492885 4.817289-12.9226667 6.8693334-3.8613333 1.792-7.9253333 4.048-12.1973333 4.592-.4320133.0311748-.7833524.3602772-.8426667.7893333-.0747226.322126-.1175955.650818-.128.9813333-.0746667 2.1333334-.0533333 2.096 1.6533333 3.3546667.5038289.4472411 1.2122486.5823731 1.8453334.352 1.4962009-.5028609 3.0748288-.7146722 4.6506666-.624.8266667.032 1.6586667-.032 2.4853334 0 2.2801903.0076097 4.5472653.3453356 6.7306666 1.0026667 1.9253334.6293333 3.4666667 1.904 5.1253334 2.9866666.1838354.2016721.252192.4831403.1813333.7466667-.1597779.4283197-.4067713.8187872-.7253333 1.1466667-1.2853334 1.2213333-2.5013334 2.5706666-3.952 3.568-8.288 5.728-18.528 10.8426666-28.4693334 12.7093333-.896.1653333-1.8613333.336-2.5013333.9813333-1.0666667 1.0666667-.6666667 3.0026667.5013333 3.9306667s2.8213334.992 4.2666667.6346667c5.456-1.3386667 11.1253333-4.1013334 16.192-6.512 3.9626667-1.888 8-3.6533334 11.6693333-6.0693334 1.7051708-1.0243296 3.2596132-2.2808072 4.6186667-3.7333333 1.0494272-1.2773701 2.1806963-2.4852448 3.3866667-3.616 1.52-1.3386667 3.2-2.512 4.8-3.7333333 1.1946666-.8853334 2.432-1.7226667 3.664-2.56.3125644-.1410001.6399386-.2465469.976-.3146667-.1913885.3704968-.4088233.7269474-.6506667 1.0666667-1.0666667 1.2213333-2.1333333 2.448-3.2266667 3.616-1.0275966.9806922-1.6739332 2.2941539-1.824 3.7066666-.1973333 2.32.6506667 6.544 3.8026667 6.1493334 2.496-.3146667 5.6426667-2.816 7.2906667-4.5706667.7893333-.8426667 1.696-1.6 2.5653333-2.352.1900353-.1365325.3916997-.2561034.6026667-.3573333.2613333.5653333-.1013334.8586666-.2933334 1.2053333-1.264 2.2773333-2.6666666 4.5066667-2.64 7.2586667-.025188.5287672.0434261 1.0578185.2026667 1.5626666.8053333 2.0426667 2.4693333 3.2906667 4.3146667 4.2666667 1.4346666.7573333 2.816.432 3.9306666-.7946667.224-.2453333.4746667-.464.6986667-.7146666.7466667-.8266667 1.4613333-1.68 2.2293333-2.48 6.0266667-6.288 11.5893334-13.2746667 17.4239997-19.8506667.25589-.3954926.702809-.6250465 1.173334-.6026667-.099133.363244-.222065.7195697-.368 1.0666667-1.066667 2.1333333-2.133334 4.3093333-3.248 6.4266667-1.3372572 2.5261854-2.4388063 5.1702601-3.290667 7.8986666-.4940302 1.6772219-.4152139 3.4712317.224 5.0986667.1877977.4601028.495329.8615508.8906667 1.1626667.6205007.4841966 1.2765773.9209867 1.9626663 1.3066666 1.091385.728776 2.566019.4433629 3.306667-.64.469333-.7306666.901333-1.4826666 1.344-2.2293333.11442-.2644496.246265-.5210135.394667-.768 2.250666-2.976 4.048-6.24 6.042666-9.3813333 1.301013-2.1143465 2.774468-4.1176032 4.405334-5.9893334 2.042666-2.2773333 4.330666-4.336 6.56-6.432 1.810035-1.6477013 3.81202-3.0712954 5.962666-4.24.571084-.3298177 1.187406-.5741903 1.829334-.7253333 1.264-.288.976 1.76 1.546666 2.2506667.864.7253333 2.533334-.1493334 2.666667-1.5093334.069333-.848-.794667-1.904-1.818667-2.0906666-2.885333-.5333334-5.642666-.416-8.277333 1.184-3.895184 2.4504848-7.461764 5.3879845-10.613333 8.7413333-.414089.5522534-.965776.9862468-1.6 1.2586667-.002887-.1792413.01501-.3582132.053333-.5333334.72-1.76 1.44-3.5146666 2.186667-5.264.746666-1.7493333 1.482666-3.328 2.176-5.008.216505-.5336398.342674-1.0995961.373333-1.6746666.053333-1.2266667-.384-1.744-1.568-1.9733334-.805403-.1953602-1.626276-.3202756-2.453333-.3733333-.565981-.0189334-1.124236.135517-1.6.4426667-.705329.5700655-1.361832 1.1980244-1.962667 1.8773333-2.133333 2.1653333-4.234667 4.32-6.32 6.5066667-1.888 1.968-3.7333333 3.9573333-5.5946667 5.9573333-1.0666666 1.152-2.1333333 2.3253333-3.136 3.5253333-1.664 1.9466667-3.2 3.9893334-4.96 5.8666667-2.224 2.3946667-4.5866666 4.6613333-6.896 6.976-.1858233.1418236-.3839439.2667645-.592.3733333-.3466666-.448-.096-.7626666.0426667-1.0986666 1.2853333-3.0506667 2.544-6.112 3.8506667-9.152.6587688-1.7148743 1.422892-3.3873957 2.288-5.008.56-.96 1.0666666-1.9626667 1.6-2.928.2468487-.3500821.1917785-.8296519-.128-1.1146667-.6666667-.7573333-1.5733334-.88-2.48-.96-2.7733334-.256-5.3653334 3.7013333-7.4666667 5.424-2.0213333 1.648-4.0746667 3.2586667-6.1226667 4.8746667-1.5306666 1.2053333-3.056 2.4053333-4.6026666 3.584-.336.256-.6826667.6026666-1.2586667.4213333-.007503-.1800634.0141082-.3601573.064-.5333333.909096-1.998603 2.0608767-3.8776356 3.4293333-5.5946667 1.0933334-1.296 2.1706667-2.608 3.3173334-3.8613333.8312806-.9180299 1.7220957-1.7803389 2.6666666-2.5813334 1.424-1.2 2.8906667-2.3573333 4.4-3.4453333 1.0026667-.72 2.1333334-1.2906667 3.2-1.9093333.356489-.2320979.8279636-.17597 1.12.1333333.6666667.5333333 1.0666667.4906667 1.472-.0373333.5333334-.7253334.5333334-1.3866667-.2506666-1.776-.7607447-.40792-1.5909743-.6701929-2.448-.7733334-1.2533334-.1226666-2.3573334.4373334-3.424 1.0933334-1.7653334 1.0666666-3.5733334 2.0906666-5.3706667 3.1146666-2.48 1.4186667-5.04 2.7093334-7.44 4.2666667-2.9973333 1.92-5.8666667 4.0426667-8.8 6.0693333-.2405079.1320147-.4921404.2426616-.752.3306667-.1256074-.4279686-.2806434-.8467442-.464-1.2533333-1.1415624-2.0820707-2.9005185-3.7590416-5.0346667-4.8-2.2062848-1.1405499-4.5313925-2.0348221-6.9333333-2.6666667-.2986583-.1089875-.5876677-.2427882-.864-.4"/><path d="m47.0506667 16.784c-.208-1.84-3.664-2.848-4.992-3.3226667-.4395882-.1780509-.9439337-.0326937-1.2213334.352-.3466666.4106667-.752.7733334-1.0666666 1.2053334-2.6666667 3.536-5.3333334 7.0666666-7.968 10.6293333-10.0906667 13.6853333-18.416 28.4266667-26.88000003 43.1146667-.29176379.4519434-.56054961.9183135-.80533334 1.3973333-.5757673 1.0317375-.23730095 2.3338927.768 2.9546667 1.264.96 2.02133334 2.0426666 3.68533334 2.368 1.60000003.3093333 2.54400003-.656 3.32800003-1.8986667 9.0666666-14.3626667 17.936-28.864 27.0133333-43.2 1.5466667-2.4426667 2.9226667-4.9866667 4.6293333-7.328.288-.4.5333334-.8373333.784-1.2586667.7946667-1.264 2.3573334-2.9706666 2.6986667-4.4426666.0437465-.1741935.056385-.3547441.0373333-.5333334"/><path d="m140.138667 28.4586667c.407737-.2477204.671359-.6765117.708354-1.1521651s-.157157-.9400493-.521688-1.2478349c-.463223-.3593977-.989618-.6289264-1.552-.7946667-.641535-.2831814-1.383875-.2145956-1.962666.1813333-.533334.368-1.152.6613334-1.669334 1.0666667-.964016.7096237-1.876525 1.4866818-2.730666 2.3253333-.805334.8373334-.730667 1.2053334-.037334 2.1333334.441438.5909597 1.113325.9663511 1.847986 1.0324909.73466.0661398 1.462792-.1832111 2.002681-.6858243 1.44-1.344 2.069333-2.1333333 3.866667-2.864h.032"/><path d="m150.4 59.9946667c-.224412.0133081-.425394-.1379934-.474667-.3573334-.041587-.3584618.100888-.7136456.378667-.944.667537-.6937355 1.405772-1.315783 2.202667-1.856.410666-.2773333.832-.5333333 1.258666-.784.381389-.2810384.817419-.4790687 1.28-.5813333.114019-.0321899.236548-.0083501.330181.064241.093632.0725912.14725.1853158.144486.303759.075879.6244401-.198979 1.2397934-.714667 1.6-1.189333.8746667-2.453333 1.6586667-3.733333 2.432-.213173.0997693-.447619.1455594-.682667.1333333m69.605334-45.3813333c.257597.0114957.496145-.1353091.601959-.3704514.105815-.2351423.057484-.5110429-.121959-.6962153-1.130667-1.1893333-3.733334-1.952-4.912-2.3413333-3.114667-1.0293333-6.032-1.88266667-10-1.49333333-.858667.08533333 2.416-3.792.864-4.99733334-2.021334-1.6-3.962667-1.89866666-5.173334-1.38133333-.501333.21333333-1.066666.76266667-2.064 2.24-.661333.95466667-1.530666 2.208-2.218666 3.12533333-.582926.81941824-1.539078 1.29047825-2.544 1.25333334-1.42884.07762863-2.852865.22715133-4.266667.44800003-6.789333 1.104-12.64 1.792-19.472 2.5813333-2.528.2933333-22.794667 3.9306667-22.112-.4.220846-.8508676.112272-1.7537478-.304-2.528-.330667-.53333333-1.477333-.34133333-1.669333.256-.232828.9131783-.208834 1.8729299.069333 2.7733333.171192.6398014.381362 1.2685312.629333 1.8826667.741334 2.0213333 1.984 3.488 4.181334 4.0426667 1.803385.47152 3.656322.7275296 5.52.7626666 4.053333.048 8-.8693333 11.930666-1.6 1.626667-.2933333 3.248-.64 4.88-.9066666 2.897778-.4835556 5.799111-.944 8.704-1.3813334 2.821334-.4213333 5.653334-.8 8.48-1.1893333.362667-.048.752-.1333333 1.024.3306667-.117333.2293333-.229333.4906666-.373333.736-.949333 1.6533333-1.925333 3.2906666-2.853333 4.9546666-3.642667 6.56-8.533334 17.776-11.733334 24.5706667-.213533.5489334-.711394.9361589-1.296 1.008-3.424.608-6.837333 1.2853333-10.261333 1.8986667-.518552.1775748-1.081448.1775748-1.6 0-.171285-.0810182-.275121-.2590224-.261333-.448.09549-1.2088341.308041-2.4055517.634666-3.5733334.602667-2.2773333 1.386667-4.5066666 1.882667-6.8053333 1.312-6.0586667 3.098667-2.704 4.885333-3.6053333.949334-.4746667 1.178667-.8586667 1.066667-1.8506667-.074667-.7413333-2.026667-1.856-2.970667-2.0586667-.8-.176-1.632-.3626666-2.373333 0-2.272 1.0666667-3.84 2.9333334-5.642667 4.608-1.802666 1.6746667-4.021333 3.152-5.946666 4.8-4.021334 3.4826667-7.925334 7.0986667-12 10.528-3.856 3.2426667-8.458667 5.8293334-12.042667 9.3493334-.746405.6462304-1.562036 1.2078712-2.432 1.6746666-.170207.064189-.355086.0789794-.533333.0426667-.076647-.0222322-.141207-.0742145-.179282-.1443519-.038074-.0701374-.046496-.1525954-.023385-.2289814.144-.3253334.261333-.592.389333-.8533334 1.018667-2.0373333 1.984-4.1066666 3.088-6.1013333 1.333334-2.4 2.245334-5.0613333 4.085334-7.1466667.310759-.3374107.451211-.7978325.381694-1.2512468-.069516-.4534143-.341457-.8506089-.739028-1.0794198-.241281-.1297332-.490689-.2437483-.746666-.3413334-1.322667-.5333333-2.133334-.336-2.805334.8906667-1.013333 1.808-1.957333 3.6533333-2.88 5.504-.586666 1.184-.970666 2.48-1.658666 3.6-1.082629 1.6678075-1.879349 3.5045896-2.357334 5.4346667-.261333 1.1466666-.341333 2.7466666.368 3.7653333.720765.928603 1.879733 1.4055865 3.045334 1.2533333 2.08-.208 3.978666-1.9146666 5.610666-3.088 2.106667-1.5093333 4.165334-3.0986666 6.181334-4.736 3.877333-3.1466666 7.6-6.48 11.258666-9.8826666 1.429334-1.3226667 2.88-2.6186667 4.330667-3.9146667.365065-.3019904.762097-.5631018 1.184-.7786667.058741-.0365117.132579-.0386087.193297-.0054897.060719.033119.098932.0963352.100036.1654897.04108.7105179.04108 1.4228155 0 2.1333334-.389333 2.7146666.085334 6.3093333-2.336 7.1466666-3.904 1.344-6.197333 3.2-9.429333 5.6533334-1.381333 1.0666666-2.325333 3.5146666-1.546667 5.184.624 1.344 2.96 2.1333333 4.298667 2.4853333 1.853391.4198629 3.787144.3145869 5.584-.304 2.698667-.8586667 7.264-2.4853333 8.165333-5.5146667.581334-1.952 1.274667-3.888 1.333334-5.9413333.050775-.8931593.653417-1.6597712 1.509333-1.92 3.381333-1.0346667 5.904-1.68 9.242667-2.848.688022-.259907 1.403945-.4388879 2.133333-.5333333-.214585.3900274-.393104.7988361-.533333 1.2213333-1.168 3.4506667-.864 2.3626667-2.213334 5.744-.778666 1.9306667-3.834666 6.768-2.090666 8.8053333 1.034666 1.2053334 2.165333 2.208 4.709333.6773334 1.408-.848 2.245333-2.2026667 3.045333-3.536.728497-1.301014 1.347519-2.6603665 1.850667-4.064 2.967238-7.5519756 6.35019-14.933932 10.133333-22.112 3.509334-6.7786667 6.981334-13.936 11.637334-20.0373334.348555-.4792035.887137-.7844648 1.477333-.8373333 1.850667-.176 3.701333-.4106667 5.552-.4746667 2.026631-.0325494 4.050366.1660664 6.032.592 1.397333.272 2.949333 1.1093334 4.442667 1.1893334"/><path d="m192.634667 55.232c-5.706667 3.2-1.973334-3.0186667-1.264-4.0213333 1.221333-1.7226667 2.538666-3.3706667 3.818666-5.0506667.570667-.7573333 1.104-1.552 1.733334-2.2613333.668433-.7875956 1.407513-1.5123934 2.208-2.1653334 2.133333-1.6426666 4.325333-3.4346666 6.789333-4.5493333 1.382704-.6529517 2.892215-.9934565 4.421333-.9973333 1.76.032 2.133334.2826666 1.210667 1.6693333-.945794 1.5038079-2.082357 2.8787984-3.381333 4.0906667-2.133334 1.872-4.32 3.7333333-6.474667 5.6053333-2.058667 1.792-3.733333 3.4826667-5.781333 5.2693333-.8.688-2.085334 1.9786667-3.28 2.4106667m27.237333-4.4266667-1.066667.8586667c-2.741333 2.224-5.269333 4.7146667-7.877333 7.088-.183664.1376201-.380121.2572807-.586667.3573333-.410666-.5333333-.128-.9546666 0-1.3546666.988445-2.7271111 1.991111-5.4488889 3.008-8.1653334.688-1.8186666 1.381334-3.6373333 2.133334-5.44.586666-1.4613333 1.253333-2.8853333 1.829333-4.3466666.576-1.4613334.149333-2.1866667-1.269333-2.6933334l-2.421334-.88c.069334-.2986666.096-.4586666.144-.6133333s.16-.384.213334-.5813333c.218666-.784.058666-1.0666667-.725334-1.2586667-.922666-.2613333-5.605333-.7786667-8.192-.2613333-5.253333 1.0666666-8.661333 4.3253333-12.224 8.2133333-1.831903 2.0142102-3.506174 4.1663349-5.008 6.4373333-1.52 2.2666667-2.421333 8.4373334-.096 10.5173334.882947.6627601 1.999792.9328092 3.088.7466666 4.549334-.4373333 6.677334-4.2026666 9.626667-7.12 1.504-1.488 2.992-2.9866666 4.496-4.4693333.245333-.24.533333-.432.816-.6506667.131521.2841875.131521.6118126 0 .896-.858667 1.6533334-1.776 3.2746667-2.602667 4.944-1.10345 2.0439307-1.807548 4.2793083-2.074666 6.5866667-.197334 2.464.842666 4.32 2.618666 5.8666667.196422.1485603.411619.2705053.64.3626666.874725.3551458 1.825917.4800127 2.762667.3626667.616833.0135117 1.221373-.1736524 1.722667-.5333333.652815-.4903056 1.271161-1.0248985 1.850666-1.6 1.514667-1.5253334 2.965334-3.1253334 4.501334-4.6293334 2.186666-2.1333333 3.866666-5.0293333 6.069333-7.152 2-1.9306666 2.794667-3.2746666 5.173333-4.224.864-.3466666 3.104-.2613333 3.274667-1.0346666.170667-.7733334-.928-.944-1.637333-.944-.869334 0-3.594667 1.2106666-4.309334 1.7013333-2.261333 1.568-1.546666 1.184-3.877333 3.008"/></g></g></svg>